<svg xmlns="http://www.w3.org/2000/svg" xmlns:xlink="http://www.w3.org/1999/xlink" viewBox="0,0,256,256" width="48px" height="48px"><g fill-opacity="0" fill="#dddddd" fill-rule="nonzero" stroke="none" stroke-width="1" stroke-linecap="butt" stroke-linejoin="miter" stroke-miterlimit="10" stroke-dasharray="" stroke-dashoffset="0" font-family="none" font-weight="none" font-size="none" text-anchor="none" style="mix-blend-mode: normal"><path d="M0,256v-256h256v256z" id="bgRectangle"></path></g><g fill="#ffffff" fill-rule="nonzero" stroke="none" stroke-width="none" stroke-linecap="butt" stroke-linejoin="none" stroke-miterlimit="10" stroke-dasharray="" stroke-dashoffset="0" font-family="none" font-weight="none" font-size="none" text-anchor="none" style="mix-blend-mode: normal"><path transform="scale(5.33333,5.33333)" d="M44,24c0,11.02793 -8.97207,20 -20,20c-11.02793,0 -20,-8.97207 -20,-20c0,-11.02793 8.97207,-20 20,-20c11.02793,0 20,8.97207 20,20z" id="strokeMainSVG" stroke="#ffffff" stroke-width="3" stroke-linejoin="round"></path><g transform="scale(5.33333,5.33333)" stroke="none" stroke-width="1" stroke-linejoin="miter"><path d="M24,4c-11.02793,0 -20,8.97207 -20,20c0,11.02793 8.97207,20 20,20c11.02793,0 20,-8.97207 20,-20c0,-11.02793 -8.97207,-20 -20,-20zM24,7c9.40662,0 17,7.59339 17,17c0,9.40661 -7.59338,17 -17,17c-9.40661,0 -17,-7.59339 -17,-17c0,-9.40661 7.59339,-17 17,-17z"></path></g></g></svg>